<svg class="main-svg" xmlns="http://www.w3.org/2000/svg" xmlns:xlink="http://www.w3.org/1999/xlink" width="700" height="500" style="" viewBox="0 0 700 500"><rect x="0" y="0" width="700" height="500" style="fill: rgb(255, 255, 255); fill-opacity: 1;"/><defs id="defs-3846e7"><g class="clips"><clipPath id="clip3846e7xyplot" class="plotclip"><rect width="517" height="320"/></clipPath><clipPath class="axesclip" id="clip3846e7x"><rect x="80" y="0" width="517" height="500"/></clipPath><clipPath class="axesclip" id="clip3846e7y"><rect x="0" y="100" width="700" height="320"/></clipPath><clipPath class="axesclip" id="clip3846e7xy"><rect x="80" y="100" width="517" height="320"/></clipPath></g><g class="gradients"/><g class="patterns"/></defs><g class="bglayer"><rect class="bg" x="80" y="100" width="517" height="320" style="fill: rgb(229, 236, 246); fill-opacity: 1; stroke-width: 0;"/></g><g class="layer-below"><g class="imagelayer"/><g class="shapelayer"/></g><g class="cartesianlayer"><g class="subplot xy"><g class="layer-subplot"><g class="shapelayer"/><g class="imagelayer"/></g><g class="minor-gridlayer"><g class="x"/><g class="y"/></g><g class="gridlayer"><g class="x"><path class="xgrid crisp" transform="translate(187.70999999999998,0)" d="M0,100v320" style="stroke: rgb(255, 255, 255); stroke-opacity: 1; stroke-width: 1px;"/><path class="xgrid crisp" transform="translate(295.41999999999996,0)" d="M0,100v320" style="stroke: rgb(255, 255, 255); stroke-opacity: 1; stroke-width: 1px;"/><path class="xgrid crisp" transform="translate(403.13,0)" d="M0,100v320" style="stroke: rgb(255, 255, 255); stroke-opacity: 1; stroke-width: 1px;"/><path class="xgrid crisp" transform="translate(510.83,0)" d="M0,100v320" style="stroke: rgb(255, 255, 255); stroke-opacity: 1; stroke-width: 1px;"/></g><g class="y"><path class="ygrid crisp" transform="translate(0,347.26)" d="M80,0h517" style="stroke: rgb(255, 255, 255); stroke-opacity: 1; stroke-width: 1px;"/><path class="ygrid crisp" transform="translate(0,294.18)" d="M80,0h517" style="stroke: rgb(255, 255, 255); stroke-opacity: 1; stroke-width: 1px;"/><path class="ygrid crisp" transform="translate(0,241.1)" d="M80,0h517" style="stroke: rgb(255, 255, 255); stroke-opacity: 1; stroke-width: 1px;"/><path class="ygrid crisp" transform="translate(0,188.01999999999998)" d="M80,0h517" style="stroke: rgb(255, 255, 255); stroke-opacity: 1; stroke-width: 1px;"/><path class="ygrid crisp" transform="translate(0,134.94)" d="M80,0h517" style="stroke: rgb(255, 255, 255); stroke-opacity: 1; stroke-width: 1px;"/></g></g><g class="zerolinelayer"><path class="xzl zl crisp" transform="translate(80,0)" d="M0,100v320" style="stroke: rgb(255, 255, 255); stroke-opacity: 1; stroke-width: 2px;"/><path class="yzl zl crisp" transform="translate(0,400.34)" d="M80,0h517" style="stroke: rgb(255, 255, 255); stroke-opacity: 1; stroke-width: 2px;"/></g><path class="xlines-below"/><path class="ylines-below"/><g class="overlines-below"/><g class="xaxislayer-below"/><g class="yaxislayer-below"/><g class="overaxes-below"/><g class="plot" transform="translate(80,100)" clip-path="url(#clip3846e7xyplot)"><g class="scatterlayer mlayer"><g class="trace scatter tracecf0ccd" style="stroke-miterlimit: 2; opacity: 1;"><g class="fills"/><g class="errorbars"/><g class="lines"><path class="js-line" d="M0,300.34L11,300.34L11,300.35L11.01,300.36L14.85,300.34L14.85,300.36L17.84,300.33L17.84,300.34L28.69,300.33L28.69,300.36L32.57,300.32L32.57,300.32L32.58,300.34L43.51,300.33L43.51,300.33L43.52,300.36L47.36,300.33L47.36,300.34L47.37,300.35L58.22,300.33L58.22,300.33L58.23,300.36L61.46,300.17L61.46,300.34L61.47,300.49L61.49,300.2L62.22,300.31L62.23,300.33L67.74,300.35L67.74,300.31L67.8,300.61L67.83,300.11L68.49,300.35L68.5,300.31L71.41,300.32L71.41,300.3L82.21,300.35L82.21,300.33L82.22,300.31L93.42,300.33L93.42,300.33L93.43,300.32L104.37,300.34L104.37,300.32L114.46,300.23L114.46,300.22L114.91,300.8L115.05,299.88L115.18,300.4L115.19,300.41L116.14,300.2L116.14,300.44L116.15,300.56L116.17,300.01L116.18,300.72L116.9,300.55L116.91,300.56L117.1,299.85L117.45,300.72L117.45,300.75L117.61,299.75L118.12,300.47L118.13,300.5L118.59,300.2L118.71,300.8L118.72,300.86L118.91,299.69L119.37,300.47L119.38,300.48L119.65,300.02L120.05,301.04L120.11,300.26L120.11,300.07L120.19,299.27L120.81,300.7L120.86,300.35L120.87,300.4L121.32,301.15L121.46,299.47L121.61,300.57L121.62,300.54L122.09,300.87L122.26,299.64L122.37,300.47L122.38,300.53L122.63,301.32L122.76,299.46L123.13,300.48L123.13,300.55L123.41,301.28L123.51,299.43L123.88,300.56L123.88,300.62L124.03,301.2L124.19,299.3L124.62,300.58L124.62,300.47L124.8,301.59L124.85,300.64L124.85,299.91L124.92,299L125.5,301.47L125.6,299.49L125.61,299.37L125.62,298.77L126.19,301.66L126.36,299.46L126.37,299.52L126.94,301.58L127.04,298.66L127.17,301.05L127.17,300.8L127.61,301.6L127.77,298.7L127.9,300.74L127.91,300.68L128.34,301.88L128.45,299.01L128.69,299.8L128.69,299.92L129.06,301.64L129.15,298.83L129.43,299.81L129.44,299.98L129.79,301.97L129.93,299L130.23,300.63L130.23,300.55L130.52,301.79L130.63,299.07L130.97,300.59L130.98,300.47L131.25,301.56L131.36,299.06L131.75,300.13L131.76,300.06L132,301.5L132.08,298.99L132.51,299.96L132.52,300.06L132.73,301.54L132.85,298.9L133.25,300.1L133.26,300.03L133.49,301.72L133.6,298.92L134.02,300.28L134.03,300.27L134.24,301.5L134.34,298.91L134.77,300.28L134.78,300.17L135.01,301.53L135.13,298.98L135.52,300.12L135.53,300.21L135.81,301.4L135.92,299.15L136.29,300.35L136.29,300.22L136.57,301.36L136.69,299.07L137.05,300.23L137.05,300.21L137.36,301.36L137.48,299.22L137.79,300.28L137.8,300.31L138.19,301.57L138.28,299.12L138.56,300.13L138.56,300.17L138.97,301.42L139.08,299.16L139.26,299.89L139.26,299.79L139.8,301.38L139.89,299.27L139.97,300.48L139.98,300.59L140.11,299.84L140.56,301.17L140.56,301.16L140.57,301.19L140.59,301.41L140.71,299.09L141.26,300.28L141.27,300.24L141.41,301.23L141.52,299.21L141.94,300.15L141.95,300.13L142.23,301.31L142.35,299.3L142.72,300.26L142.73,300.24L143.05,301.35L143.17,299.29L143.44,300.53L143.45,300.58L143.88,301.32L144,299.27L144.16,299.89L144.17,299.83L144.72,300.98L144.81,299.83L144.82,299.76L145.55,300.82L145.64,300.19L145.64,300.14L145.71,299.63L145.89,300.68L146.31,300.66L146.32,300.68L146.49,299.67L146.95,300.32L146.96,300.34L147.13,300.76L147.27,299.67L147.77,300.41L147.77,300.39L148.06,299.65L148.7,300.56L148.72,300.51L148.72,300.48L148.81,299.87L149.23,300.65L149.5,299.97L149.51,299.95L150.11,300.71L150.26,299.58L150.29,299.86L150.29,300.05L150.79,301.25L150.9,299.37L151.06,300.41L151.07,300.35L151.46,301.49L151.55,299.44L151.81,300.36L151.82,300.36L152.11,301.51L152.16,299.58L152.58,300.12L152.59,300.17L152.76,301.81L152.81,299.45L153.41,301.02L153.42,300.86L154.03,301.85L154.08,299.1L154.17,300.55L154.18,300.59L154.65,301.78L154.7,299.27L154.92,300.4L154.92,300.36L155.26,301.7L155.31,299.45L155.67,300.24L155.68,300.24L155.87,301.75L155.9,300.41L155.9,300.05L155.93,299.25L156.47,301.57L156.63,300.33L156.64,300.42L157.06,301.53L157.12,299.16L157.37,300.27L157.37,300.22L157.5,300.06L157.6,300.93L157.61,300.94L157.61,300.97L157.64,301.57L157.71,299.2L158.27,299.97L158.28,299.66L158.31,299.33L158.78,301.55L159.03,300.43L159.04,300.37L159.35,301.39L159.45,299.62L159.78,300.44L159.79,300.44L159.91,301.21L160.02,299.7L160.22,300.16L160.23,300.12L160.57,299.76L161.02,301.11L161.06,300.67L161.06,300.53L161.13,299.71L161.56,300.95L161.82,300.17L161.83,300.22L162.1,300.93L162.18,299.94L162.18,299.88L162.59,301.05L162.77,299.79L162.85,300.35L162.85,300.36L163.16,301.15L163.3,299.84L163.6,300.3L163.61,300.35L163.85,299.87L164.23,301.05L164.32,300.15L164.32,300.11L164.76,301.05L164.91,299.78L165.05,300.45L165.06,300.44L165.3,301L165.45,299.73L165.78,300.66L165.79,300.7L165.96,299.77L166.38,300.95L166.47,300.17L166.47,300.04L166.92,301.04L167.06,299.76L167.17,300.35L167.18,300.37L167.44,301.08L167.6,299.8L167.91,300.47L167.92,300.54L168.15,299.81L168.53,301.06L168.62,300.19L168.63,300.06L169.07,301.03L169.22,299.8L169.34,300.32L169.35,300.32L169.61,301.01L169.76,299.75L170.06,300.49L170.07,300.54L170.3,299.77L170.69,301.05L170.78,300.1L170.79,300.04L171.21,301.05L171.37,299.75L171.49,300.45L171.49,300.48L171.76,301.12L171.89,299.7L172.22,300.57L172.23,300.62L172.42,299.67L172.83,301.08L172.93,299.89L172.94,299.87L173.35,300.99L173.5,299.69L173.61,300.5L173.61,300.51L173.88,300.97L174.05,299.73L174.36,300.5L174.36,300.57L174.57,299.71L174.98,300.87L175.05,300.23L175.05,300.21L175.49,300.81L175.66,299.81L175.77,300.51L175.78,300.47L176.06,300.81L176.19,299.94L176.52,300.57L176.53,300.58L176.74,299.91L177.11,300.72L177.21,300.29L177.21,300.16L177.68,300.76L177.8,299.84L177.92,300.44L177.93,300.46L178.19,300.87L178.35,299.79L178.66,300.56L178.67,300.62L178.89,299.64L179.25,301.21L179.34,300.02L179.34,299.81L179.77,301.46L179.91,299.27L180.1,300.13L180.11,300.09L180.29,301.76L180.4,299.11L180.77,301.32L180.78,301.4L180.81,301.8L180.93,299.08L181.54,301.06L181.55,301.02L181.86,301.25L181.93,299.29L182.3,300.7L182.31,300.76L182.5,299.3L182.92,301.34L182.96,300.06L182.96,299.77L182.99,299.2L183.44,301.4L183.73,299.99L183.74,299.79L183.96,301.36L184.04,299.17L184.51,300.39L184.52,300.11L185.01,301.43L185.09,299.4L185.17,300.74L185.18,300.79L185.53,301.36L185.6,299.41L185.95,300.32L185.95,300.39L186.06,301.55L186.13,299.35L186.59,301.06L186.59,300.6L187.11,301.46L187.17,299.41L187.35,300.17L187.36,300.12L187.6,301.52L187.71,299.5L188.08,300.4L188.09,300.44L188.16,301.45L188.25,299.51L188.76,299.56L188.77,299.46L189.19,301.41L189.29,299.37L189.56,300.2L189.57,300.23L189.72,301.35L189.82,299.66L189.82,299.54L190.26,301.15L190.56,300.13L190.56,300.09L190.8,300.79L191.19,300L191.25,300.34L191.26,300.37L191.53,299.89L191.9,300.84L191.99,300.3L192,300.27L192.45,300.89L192.6,299.82L192.75,300.25L192.76,300.24L193,300.91L193.08,300.02L193.09,299.96L193.52,300.98L193.66,299.79L193.79,300.37L193.8,300.37L194.07,300.98L194.18,299.78L194.52,300.54L194.53,300.58L194.71,299.8L195.13,301.02L195.23,299.82L195.24,299.81L196.2,300.92L196.23,300.64L196.24,300.58L196.33,299.78L196.72,300.91L197,300.39L197.01,300.38L197.27,300.92L197.41,299.84L197.74,300.56L197.75,300.6L197.94,299.84L198.35,300.85L198.43,300.13L198.44,300.06L198.88,300.83L199.04,299.9L199.15,300.4L199.16,300.41L199.43,300.79L199.83,299.86L199.89,300.48L199.9,300.64L199.97,300.95L200.1,299.95L200.62,300.01L200.62,299.98L201.55,300.66L201.58,300.57L201.59,300.58L202.43,300.14L202.44,300.2L202.45,300.26L203.36,300.46L203.49,300.29L203.49,300.26L204.57,300.41L204.58,300.33L204.58,300.3L208,300.34L208,300.3L208.01,300.26L209.02,300.39L209.04,300.33L209.05,300.29L210.22,300.39L210.23,300.3L210.23,300.27L211.94,300.55L211.98,300.11L211.98,300.1L212.54,300.76L212.87,300.13L212.88,300.11L213.2,300.89L213.29,299.85L213.3,299.79L213.88,301.16L213.99,299.55L214,299.54L214.58,301.21L214.68,299.36L214.82,300.75L214.83,300.74L215.32,301.27L215.42,299.14L215.54,300.82L215.55,300.87L216.06,301.13L216.16,299.08L216.24,300.38L216.24,300.42L216.84,301L216.93,299.15L216.93,299.13L217.64,301.02L217.69,299.46L217.69,299.44L217.71,299.23L217.85,301.17L218.38,300.61L218.39,300.65L218.51,299.14L218.65,301.3L219.13,300.5L219.13,300.42L219.31,299.2L219.44,301.27L219.53,299.27L219.53,299.21L220.13,299.12L220.26,301.19L220.31,300.31L220.31,300.18L220.87,301.16L220.96,299.04L221.04,300.53L221.05,300.64L221.09,301.24L221.17,299.55L221.75,299.75L221.76,299.6L221.79,299.31L221.91,301.07L222.45,300.58L222.46,300.61L222.52,301.23L222.62,299.27L223.19,300.38L223.2,300.36L223.36,301.07L223.42,299.78L223.43,299.64L223.46,299.42L223.58,300.72L224.13,300.45L224.14,300.49L224.22,300.83L224.38,299.69L224.86,300.25L224.87,300.25L225.08,300.82L225.25,299.58L225.69,300.42L225.7,300.4L225.96,300.8L226.01,300.16L226.01,300.07L226.07,299.65L226.22,300.61L226.71,300.57L226.72,300.61L226.79,300.77L226.91,299.64L227.46,300.48L227.47,300.47L227.74,299.7L228.28,300.51L228.3,300.46L228.31,300.45L228.58,299.79L229.18,300.41L229.18,300.41L229.19,300.38L229.44,299.91L229.99,300.48L229.99,300.46L231.03,300.61L231.05,300.22L231.05,300.1L231.14,300.02L231.68,300.66L231.81,300.09L231.82,300.07L232.94,300.41L232.94,300.39L232.95,300.39L233.88,300.25L233.93,300.38L233.93,300.4L241.68,300.4L241.68,300.42L241.69,300.44L242.48,300.14L242.61,300.27L242.62,300.26L243.65,300.68L243.74,300.32L243.74,300.27L244.39,300.66L244.52,299.89L244.53,300.05L244.54,300.08L245.09,300.78L245.22,299.78L245.23,299.79L245.84,300.87L245.95,299.66L245.96,299.68L245.97,299.67L246.58,300.88L246.69,299.52L246.69,299.54L246.7,299.53L247.33,301L247.43,299.31L247.44,299.35L248.09,300.98L248.17,299.34L248.18,299.27L248.86,301.03L248.9,300.16L248.9,299.98L248.95,299.19L249.06,300.85L249.58,300.67L249.59,300.74L249.62,301.08L249.72,299.07L250.3,300.43L250.31,300.43L250.4,301.18L250.5,298.95L250.71,299.51L250.72,299.42L251.19,301.22L251.25,299.53L251.26,299.34L251.28,298.93L251.98,301.3L252.01,300.75L252.02,300.5L252.07,298.85L252.76,301.34L252.77,301.28L252.78,301.28L252.87,298.89L253.5,300.34L253.51,300.43L253.56,301.36L253.66,298.84L254.24,300.38L254.25,300.33L254.37,301.41L254.47,298.81L254.97,300.61L254.98,300.69L255.18,301.44L255.27,298.74L255.68,299.84L255.69,299.79L256.08,298.73L256.18,301.37L256.29,299.4L256.29,299.33L256.41,301.34L256.86,300.04L256.86,299.82L256.9,298.81L257.23,301.31L257.57,300.47L257.58,300.54L257.72,298.95L258.05,301.31L258.32,300.55L258.33,300.5L258.46,301.3L258.55,298.94L259.07,300.61L259.08,300.68L259.3,301.35L259.39,298.85L259.79,300.02L259.8,299.93L260.15,301.23L260.23,298.91L260.52,300.36L260.52,300.48L260.99,301.28L261.07,298.93L261.25,300.25L261.26,300.15L261.41,301.13L261.94,298.99L262,300.3L262,300.42L262.19,299.69L262.71,301.14L262.74,300.51L262.75,300.28L262.8,299.01L262.91,301.22L263.5,300.65L263.51,300.73L263.68,299.19L263.78,301.2L264.24,300.6L264.25,300.58L264.47,299.27L264.58,301.01L264.78,300.88L264.79,300.97L264.81,301.12L265.13,299.65L265.47,300.44L265.47,300.34L266.05,300.97L266.15,299.16L266.21,300.23L266.21,300.4L266.26,301.16L266.38,299.51L266.95,300.48L266.96,300.48L267.16,300.67L267.49,299.84L267.77,300.27L267.77,300.33L268.11,298.9L268.46,301.3L268.51,300.28L268.52,300.18L268.55,299.79L268.7,300.74L269.25,300.38L269.26,300.37L269.69,299.82L270.06,300.69L270.12,300.27L270.13,300.24L271.1,300.42L271.13,300.29L271.13,300.25L271.19,299.88L271.31,300.7L271.87,300.28L271.88,300.31L278.77,300.27L278.77,300.22L278.78,300.18L279.82,300.3L279.82,300.29L279.83,300.27L280.77,300.35L280.78,300.29L280.79,300.29L281.82,300.37L281.84,300.35L281.84,300.32L285.47,300.31L285.47,300.31L285.48,300.3L286.76,300.34L286.76,300.33L291.51,300.37L291.51,300.32L291.52,300.23L292.08,300.62L292.36,300.29L292.37,300.23L293.1,300.41L293.19,300.35L293.2,300.3L294.02,300.47L294.04,300.4L294.04,300.36L295.04,300.33L295.04,300.35L295.05,300.36L296.48,300.35L296.48,300.36L296.49,300.38L300.88,300.22L300.88,300.21L300.89,300.21L302.17,300.72L302.22,300.37L302.23,300.28L302.84,300.76L303.01,299.67L303.01,299.7L303.61,300.97L303.73,300.04L303.73,299.81L303.76,299.49L304.33,300.95L304.44,300.08L304.45,300.29L304.51,299.42L305.07,300.93L305.17,300.48L305.18,300.66L305.26,299.45L305.84,301.01L305.92,300.43L305.93,300.54L306.03,299.48L306.59,301.05L306.68,300.48L306.69,300.52L306.78,299.45L307.34,301L307.44,300.24L307.44,300.43L307.53,299.42L308.08,301.05L308.18,300.3L308.19,300.37L308.29,299.38L308.87,301.02L308.89,300.91L308.9,300.84L309.06,299.46L309.22,300.92L309.65,300.79L309.66,300.71L309.84,299.48L310.4,300.93L310.41,300.73L310.42,300.73L310.6,299.5L310.75,300.87L311.06,300.6L311.07,300.63L311.39,299.5L311.53,300.89L311.72,300.06L311.72,299.92L312.17,299.43L312.3,300.84L312.47,300.04L312.48,300.02L312.82,300.8L312.93,299.5L313.24,300.11L313.25,300.13L313.56,300.91L313.73,299.52L313.87,300.63L313.87,300.72L314.43,301.02L314.53,299.4L314.64,300.51L314.65,300.57L314.91,299.84L315.17,300.9L315.22,300.81L315.23,301L315.34,299.37L315.98,300.84L315.99,300.92L316.04,301L316.14,299.39L316.75,300.74L316.76,300.83L316.78,301L316.94,299.41L317.46,300.47L317.47,300.4L317.64,301.03L317.75,299.33L318.19,300.3L318.2,300.27L318.46,300.99L318.54,299.37L318.55,299.54L318.56,299.35L319.23,301.01L319.32,299.97L319.33,299.75L319.36,299.32L320.05,300.99L320.08,300.25L320.09,300.71L320.09,301.09L320.18,299.32L320.84,300.85L320.85,300.76L320.88,300.96L321,299.42L321.56,300.51L321.57,300.49L321.67,300.86L321.84,299.39L322.2,300.16L322.21,300.11L322.56,300.89L322.73,299.52L323.02,300.36L323.02,300.31L323.42,300.77L323.59,299.73L323.73,300.55L323.73,300.58L324.81,300.24L324.87,300.39L324.87,300.41L326.53,300.43L326.54,300.48L326.55,300.5L327.63,300.1L327.76,300.35L327.77,300.36L328.6,300.41L328.6,300.39L328.61,300.38L330.21,300.4L330.22,300.37L330.23,300.35L330.55,300.51L330.82,300.11L331,300.4L331.01,300.39L332.26,300.22L332.29,300.28L332.3,300.29L333.04,300.55L333.04,300.02L333.05,299.99L333.25,301L333.42,299.61L333.8,300.44L333.81,300.51L334.12,299.33L334.26,301.17L334.55,300.48L334.56,300.35L334.92,301.23L335.03,299.21L335.29,300L335.3,300.04L335.77,301.23L335.83,299.54L335.84,299.86L335.85,299.49L335.85,299.22L336.6,301.18L336.61,301.18L336.64,301.58L336.74,298.99L337.36,300.26L337.37,300.26L337.5,301.48L337.61,299.22L338.13,300.4L338.13,300.33L338.33,301.23L338.47,299.12L338.86,300.46L338.87,300.52L339.24,301.63L339.32,299.06L339.62,299.89L339.63,299.88L340.1,301.59L340.16,299.72L340.16,299.47L340.19,299.04L340.94,301.23L340.95,300.98L340.96,300.52L340.97,301.7L341.07,299.01L341.69,300.17L341.7,300.21L341.85,301.58L341.99,299.12L342.45,300.59L342.46,300.51L342.73,301.56L342.87,299.13L343.23,300.21L343.24,300.44L343.62,301.71L343.7,299.01L343.99,299.93L344,299.94L344.03,299.79L344.49,301.27L344.51,301.17L344.52,301.32L344.62,299.03L345.27,300.5L345.28,300.49L345.35,301.21L345.51,299.09L345.99,300.41L346,300.32L346.25,301.15L346.42,299.06L346.79,300.1L346.79,300.14L347.34,299.19L347.52,301.04L347.58,300.5L347.58,300.41L348.1,301.02L348.26,299.19L348.35,300.26L348.36,300.29L348.41,300.97L348.58,299.98L349.11,300.1L349.12,300.39L349.2,299.23L349.35,300.91L349.87,300.71L349.88,300.75L350.56,300.04L350.69,300.47L350.7,300.52L350.76,300.76L351.39,300.11L351.5,300.38L351.51,300.41L351.59,300.91L351.77,300.05L352.2,300.4L352.21,300.28L352.48,300.65L352.63,300.03L352.98,300.4L352.99,300.25L353.38,300.64L353.56,300.09L353.74,300.45L353.75,300.42L354.45,300.11L354.56,300.39L354.57,300.38L356.11,300.46L356.11,300.47L356.12,300.49L356.86,300.27L356.95,300.38L356.96,300.4L358.13,300.21L358.21,300.36L358.22,300.4L359.67,300.3L359.67,300.34L359.68,300.37L361.23,300.35L361.23,300.45L361.24,300.48L361.48,300.2L361.8,300.53L361.99,300.31L362,300.34L362.15,300.49L362.73,300.08L362.74,300.45L362.74,300.52L362.81,300.67L363.15,300.15L363.49,300.29L363.5,300.37L363.69,300.04L363.94,300.73L363.95,300.85L364.06,299.11L364.61,301.58L364.65,300.15L364.65,299.67L364.69,298.75L365.27,302.05L365.38,299.99L365.38,300.23L365.92,302.44L365.98,298.18L366.11,300.46L366.11,300.19L366.57,302.36L366.64,298.01L366.83,300.69L366.84,300.7L367.21,302.07L367.28,297.96L367.58,300.62L367.59,300.62L367.85,301.87L367.92,298.11L368.36,300.11L368.37,300.18L368.55,298.28L369.13,301.71L369.14,300.78L369.15,300.42L369.18,298.22L369.76,301.61L369.9,300.21L369.91,300.15L370.38,301.35L370.44,298.73L370.65,300.18L370.66,300.12L371,301.48L371.07,298.49L371.39,300.37L371.4,300.36L371.62,300.81L371.73,299.88L372.15,300.25L372.16,300.24L372.95,300.51L373,300.19L373.01,300.18L373.7,300.5L373.8,300.4L373.81,300.4L374.48,300.25L374.59,300.38L374.6,300.41L375.38,300.17L375.51,300.37L375.52,300.38L376.43,300.32L376.46,300.45L376.47,300.46L377.29,300.23L377.32,300.32L377.33,300.33L378.48,300.2L378.5,300.26L378.51,300.33L380.21,300.41L380.23,300.29L380.24,300.26L381.06,300.4L381.07,300.39L381.08,300.39L381.83,300.25L381.9,300.35L381.91,300.37L390.46,300.41L390.46,300.43L391.14,300.79L391.26,300.09L391.26,300.01L391.3,299.76L391.91,300.75L391.91,300.74L391.92,300.72L392.08,299.78L392.63,300.34L392.63,300.36L392.79,300.79L392.93,299.7L393.4,300.35L393.4,300.34L393.57,300.77L393.71,299.66L394.17,300.33L394.18,300.29L394.45,300.83L394.6,299.68L394.93,300.36L394.94,300.37L395.37,299.95L395.37,299.82L396.13,300.83L396.22,300.16L396.23,300.08L396.29,299.67L396.91,300.73L396.92,300.69L396.93,300.68L396.97,300.95L397.08,299.61L397.65,300.31L397.66,300.26L397.81,300.97L397.88,299.44L398.42,300.34L398.43,300.31L398.67,300.95L398.73,299.75L398.73,299.39L399.52,300.87L399.52,300.85L399.53,300.86L399.54,301.02L399.6,299.34L400.25,300.44L400.26,300.41L400.46,299.24L400.6,300.95L401,300.36L401,300.2L401.33,298.99L401.47,301.05L401.74,300.04L401.75,300.09L402.2,299.15L402.32,300.98L402.4,299.72L402.41,299.76L402.98,300.91L403.07,299.32L403.21,300.66L403.21,300.61L403.83,300.89L403.96,299.42L404.02,299.83L404.02,300.07L404.17,300.02L404.7,300.86L404.79,300.51L404.79,300.27L404.87,299.77L404.99,300.53L405.52,300.43L405.53,300.47L406.43,300.31L406.44,300.35L406.44,300.38L406.65,300.18L407.23,300.33L407.25,300.29L407.26,300.29L408.05,300.36L408.15,300.25L408.16,300.25L408.93,300.38L408.97,300.31L408.97,300.29L409.97,300.43L410.02,300.36L410.02,300.34L411.63,300.39L411.64,300.31L411.64,300.25L412.1,299.74L412.35,300.99L412.36,300.01L412.36,299.62L412.75,301.74L412.76,298.93L413.1,300.33L413.11,300.16L413.22,301.66L413.23,299.02L413.86,300.77L413.86,299.84L414.26,301.64L414.43,298.81L414.54,300.5L414.55,301.97L415.3,298.83L415.3,299.77L415.31,302.47L415.32,298.21L416.06,299.81L416.07,299.74L416.32,296.9L416.33,304L416.82,302.53L416.83,300.25L417.29,297.16L417.3,303.58L417.58,300.48L417.59,299.71L417.61,302.07L417.62,298.46L418.34,299.86L418.35,300.49L418.48,299.42L418.58,301.15L419.1,300.27L419.11,300.54L419.14,299.9L419.43,300.75L419.86,300.34L419.87,300.4L419.94,300.54L420.52,300.09L420.6,300.47L420.61,300.55L420.99,299.87L421.35,301.1L421.36,301L421.37,300.97L421.46,299.19L421.99,301.44L422.14,299.95L422.15,300.11L422.67,301.7L422.79,298.62L422.9,300.68L422.91,300.47L423.39,302.06L423.48,298.31L423.66,299.9L423.67,299.79L424.12,302.38L424.2,298.11L424.43,300.54L424.44,300.47L424.86,301.82L424.95,298.39L425.14,299.83L425.15,299.73L425.61,301.48L425.7,297.82L425.89,299.74L425.9,299.61L426.4,301.7L426.48,298.42L426.65,299.73L426.66,299.6L427.17,301.48L427.23,299.12L427.25,299.15L427.25,299.05L427.28,298.48L427.97,301.53L428.02,300.51L428.02,299.96L428.07,298.56L428.17,301.67L428.74,301.05L428.75,301.2L428.85,298.07L428.96,301.61L429.5,300.34L429.51,300.44L429.74,298.52L429.83,301.62L430.26,300.32L430.27,300.42L430.5,300.95L430.63,299.56L431.02,300.44L431.03,300.46L431.82,300.09L431.89,300.25L431.9,300.32L432.33,300.11L432.54,300.54L432.64,300.29L432.65,300.27L432.79,300.15L433.27,300.52L433.38,300.18L433.39,300.13L434.07,300.49L434.15,300.28L434.16,300.21L434.54,300.52L434.93,300.38L434.94,300.33L436.6,300.33L436.6,300.39L438.1,300.25L438.15,300.4L438.15,300.46L438.85,300.25L439.03,300.44L439.04,300.47L439.93,300.28L439.95,300.29L439.96,300.3L442.43,300.38L442.43,300.39L443.81,300.32L443.81,300.34L443.82,300.36L517,300.35L517,300.33" style="vector-effect: non-scaling-stroke; fill: none; stroke: rgb(99, 110, 250); stroke-opacity: 1; stroke-width: 2px; opacity: 1;"/></g><g class="points"/><g class="text"/></g><g class="trace scatter traceb14b29" style="stroke-miterlimit: 2; opacity: 1;"><g class="fills"/><g class="errorbars"/><g class="lines"><path class="js-line" d="M0,300.33L114.3,300.17L114.3,299.42L119.57,298.79L119.57,298.79L119.58,297.57L121.33,297.57L121.33,297.57L121.34,295.82L123.09,295.82L123.09,295.82L123.1,294.09L124.85,294.09L124.85,294.09L124.85,289.34L130.13,289.05L130.13,292.28L131.88,292.28L131.88,292.28L131.89,290.45L133.64,290.45L133.64,290.45L133.65,293.32L138.92,293.25L138.92,291.31L142.44,292.06L142.44,293.2L144.19,293.2L144.19,293.2L144.2,297.62L147.71,298.31L147.71,298.31L147.72,298.7L149.47,298.7L149.47,296.69L151.23,296.69L151.23,294.2L160.02,294.16L160.02,294.16L160.03,296.97L165.3,296.38L165.3,296.04L170.57,296.49L170.57,296.49L170.58,295.61L174.09,295.83L174.09,297.85L175.85,297.85L175.85,298.93L177.61,298.93L177.61,297.28L179.36,297.28L179.36,297.28L179.37,288.77L181.12,288.77L181.12,288.77L181.13,291.54L182.88,291.54L182.88,291.54L182.89,293.08L184.64,293.08L184.64,294.41L189.92,294.05L189.92,297.55L193.43,297.89L193.43,297.89L193.44,296.69L196.95,296.97L196.95,297.91L200.47,298.36L200.47,299.11L202.22,299.11L202.22,299.11L202.23,300.22L211.02,300.13L211.02,298.87L212.78,298.87L212.78,297.11L214.53,297.11L214.53,297.11L214.54,291.62L218.05,292.18L218.05,292.18L218.06,289.47L221.57,289.67L221.57,293.72L223.33,293.72L223.33,297.16L226.84,297.66L226.84,297.66L226.85,298.25L228.6,298.25L228.6,298.25L228.61,299.49L239.15,300.22L239.15,300.22L239.16,300.28L242.67,300.16L242.67,300.16L242.68,299.32L244.43,299.32L244.43,298.19L246.19,298.19L246.19,296.6L247.95,296.6L247.95,293.56L249.7,293.56L249.7,293.56L249.71,289.57L251.46,289.57L251.46,289.57L251.47,286.9L254.98,286.78L254.98,286.78L254.99,285.88L256.74,285.88L256.74,287.5L260.26,286.98L260.26,289.88L262.01,289.88L262.01,289.88L262.02,291.7L263.77,291.7L263.77,291.7L263.78,293.37L265.53,293.37L265.53,293.37L265.54,294.69L267.29,294.69L267.29,294.69L267.3,293.48L269.05,293.48L269.05,299.37L274.32,299.64L274.32,299.64L274.33,300.2L300.7,300.1L300.7,300.1L300.71,299.16L302.46,299.16L302.46,299.16L302.47,297.15L304.22,297.15L304.22,294.74L305.98,294.74L305.98,292.89L307.74,292.89L307.74,293.93L309.49,293.93L309.49,293.93L309.5,294.93L313.01,295.42L313.01,295.42L313.02,296.68L318.29,296.16L318.29,295.36L321.8,295.98L321.8,295.98L321.81,297.35L323.56,297.35L323.56,297.35L323.57,299.3L328.84,299.99L328.84,300.06L332.36,299.84L332.36,297.34L334.11,297.34L334.11,297.34L334.12,294.65L335.87,294.65L335.87,294.65L335.88,292.53L339.39,292.27L339.39,291.11L344.67,291.05L344.67,293.27L346.42,293.27L346.42,293.27L346.43,294.55L348.18,294.55L348.18,294.55L348.19,295.32L349.94,295.32L349.94,295.32L349.95,299.71L362.25,300.16L362.25,300.16L362.26,299.41L364.01,299.41L364.01,288.53L365.77,288.53L365.77,284.28L367.53,284.28L367.53,288.75L369.28,288.75L369.28,288.75L369.29,293.84L371.04,293.84L371.04,293.84L371.05,298.21L372.8,298.21L372.8,298.21L372.81,300.17L390.39,300.3L390.39,298.42L397.42,297.89L397.42,297.89L397.43,296.92L399.18,296.92L399.18,295.98L400.94,295.98L400.94,295.01L402.7,295.01L402.7,296.8L404.45,296.8L404.45,296.8L404.46,299.02L406.21,299.02L406.21,299.02L406.22,300.19L411.49,300.26L411.49,295.53L413.25,295.53L413.25,288.64L415.01,288.64L415.01,265.49L416.76,265.49L416.76,265.49L416.77,272.41L418.52,272.41L418.52,272.41L418.53,299.09L420.28,299.09L420.28,299.09L420.29,297.13L422.04,297.13L422.04,297.13L422.04,289.88L423.8,289.88L423.8,287.32L425.56,287.32L425.56,284.6L427.32,284.6L427.32,285.4L429.07,285.4L429.07,285.4L429.08,291.45L430.83,291.45L430.83,291.45L430.84,299.9L517,300.29L517,300.29" style="vector-effect: non-scaling-stroke; fill: none; stroke: rgb(239, 85, 59); stroke-opacity: 1; stroke-width: 2px; opacity: 1;"/></g><g class="points"/><g class="text"/></g><g class="trace scatter trace063307" style="stroke-miterlimit: 2; opacity: 1;"><g class="fills"/><g class="errorbars"/><g class="lines"><path class="js-line" d="M0,298.21L5.27,297.59L5.27,297.59L5.28,297.28L59.78,297.44L59.78,297.44L59.79,295.16L61.54,295.16L61.54,295.16L61.55,296.61L65.06,297.19L65.06,297.19L65.07,296L66.82,296L66.82,290.47L68.58,290.47L68.58,296.07L70.34,296.07L70.34,294.62L72.09,294.62L72.09,294.62L72.1,295.91L77.37,295.82L77.37,295.82L77.37,296.65L80.89,297.19L80.89,297.48L109.02,297.66L109.02,297.66L109.03,290.75L110.78,290.75L110.78,290.75L110.79,282.39L114.3,281.83L114.3,258.53L116.06,258.53L116.06,240.72L117.82,240.72L117.82,244.18L119.57,244.18L119.57,244.18L119.58,224.2L121.33,224.2L121.33,224.2L121.34,195.99L123.09,195.99L123.09,195.99L123.1,174.16L124.85,174.16L124.85,174.16L124.85,130.34L126.61,130.34L126.61,134.71L128.37,134.71L128.37,133.81L130.13,133.81L130.13,161.65L131.88,161.65L131.88,161.65L131.89,147.66L133.64,147.66L133.64,147.66L133.65,180.93L135.4,180.93L135.4,180.93L135.41,186.52L137.16,186.52L137.16,180.48L138.92,180.48L138.92,160.26L140.68,160.26L140.68,166.73L142.44,166.73L142.44,170.69L144.19,170.69L144.19,170.69L144.2,223.54L145.95,223.54L145.95,223.54L145.96,235.8L147.71,235.8L147.71,235.8L147.72,236.75L149.47,236.75L149.47,207.35L151.23,207.35L151.23,182.76L152.99,182.76L152.99,185.17L154.74,185.17L154.74,185.17L154.75,183.29L156.5,183.29L156.5,183.29L156.51,194.06L160.02,193.48L160.02,193.48L160.03,213.15L161.78,213.15L161.78,202.72L163.54,202.72L163.54,197.74L165.3,197.74L165.3,194.29L167.05,194.29L167.05,194.29L167.06,196.85L168.81,196.85L168.81,196.85L168.82,202.41L170.57,202.41L170.57,202.41L170.58,190.55L174.09,190.88L174.09,222.55L175.85,222.55L175.85,243.82L177.61,243.82L177.61,214.48L179.36,214.48L179.36,214.48L179.37,123.92L181.12,123.92L181.12,123.92L181.13,143.03L182.88,143.03L182.88,143.03L182.89,163.02L184.64,163.02L184.64,183.84L186.4,183.84L186.4,192.98L188.16,192.98L188.16,182.54L189.92,182.54L189.92,214.04L191.67,214.04L191.67,214.04L191.68,226.02L193.43,226.02L193.43,226.02L193.44,208.7L195.19,208.7L195.19,208.7L195.2,211.98L196.95,211.98L196.95,227.68L198.71,227.68L198.71,231.15L200.47,231.15L200.47,245.77L202.22,245.77L202.22,245.77L202.23,284.07L203.98,284.07L203.98,284.07L203.99,287.44L205.74,287.44L205.74,287.44L205.75,284.48L207.5,284.48L207.5,284.48L207.51,283.17L209.26,283.17L209.26,278.39L211.02,278.39L211.02,237.66L212.78,237.66L212.78,214.36L214.53,214.36L214.53,214.36L214.54,151.36L216.29,151.36L216.29,151.36L216.3,149.37L218.05,149.37L218.05,149.37L218.06,128.38L221.57,128.07L221.57,170.87L223.33,170.87L223.33,215.19L225.09,215.19L225.09,223.78L226.84,223.78L226.84,223.78L226.85,234.6L228.6,234.6L228.6,234.6L228.61,258.84L230.36,258.84L230.36,258.84L230.37,263.95L232.12,263.95L232.12,279.87L233.88,279.87L233.88,278.66L235.64,278.66L235.64,274.97L237.4,274.97L237.4,283.44L239.15,283.44L239.15,283.44L239.16,288.25L240.91,288.25L240.91,288.25L240.92,279.15L242.67,279.15L242.67,279.15L242.68,246.72L244.43,246.72L244.43,230.02L246.19,230.02L246.19,207.27L247.95,207.27L247.95,165.98L249.7,165.98L249.7,165.98L249.71,135.22L251.46,135.22L251.46,135.22L251.47,111.06L254.98,111.71L254.98,111.71L254.99,107.66L256.74,107.66L256.74,113.59L258.5,113.59L258.5,110.98L260.26,110.98L260.26,134.92L262.01,134.92L262.01,134.92L262.02,149.86L263.77,149.86L263.77,149.86L263.78,162.01L265.53,162.01L265.53,162.01L265.54,184.04L267.29,184.04L267.29,184.04L267.3,179.63L269.05,179.63L269.05,252.55L270.81,252.55L270.81,263.78L272.57,263.78L272.57,258.3L274.32,258.3L274.32,258.3L274.33,280.9L276.08,280.9L276.08,280.9L276.09,287.61L277.84,287.61L277.84,287.61L277.85,273.46L279.6,273.46L279.6,286.84L283.12,287.53L283.12,292.63L286.63,292.2L286.63,292.2L286.64,293.08L288.39,293.08L288.39,293.08L288.4,295.16L290.15,295.16L290.15,295.16L290.16,290.68L291.91,290.68L291.91,281.78L293.67,281.78L293.67,285.12L295.43,285.12L295.43,281.77L297.18,281.77L297.18,281.77L297.19,278.71L298.94,278.71L298.94,278.71L298.95,277.48L300.7,277.48L300.7,277.48L300.71,249.24L302.46,249.24L302.46,249.24L302.47,210.25L304.22,210.25L304.22,173.69L305.98,173.69L305.98,151.74L307.74,151.74L307.74,164.94L309.49,164.94L309.49,164.94L309.5,174.03L311.25,174.03L311.25,174.03L311.26,183.38L313.01,183.38L313.01,183.38L313.02,203.05L314.77,203.05L314.77,203.05L314.78,198.74L316.53,198.74L316.53,204.31L318.29,204.31L318.29,191.32L320.05,191.32L320.05,195.76L321.8,195.76L321.8,195.76L321.81,213.6L323.56,213.6L323.56,213.6L323.57,250.04L325.32,250.04L325.32,250.04L325.33,257.08L327.08,257.08L327.08,269.86L328.84,269.86L328.84,273.98L330.6,273.98L330.6,264.43L332.36,264.43L332.36,220.94L334.11,220.94L334.11,220.94L334.12,184.46L335.87,184.46L335.87,184.46L335.88,162.07L337.63,162.07L337.63,162.07L337.64,158.81L339.39,158.81L339.39,147.88L342.91,147.39L342.91,148.78L344.67,148.78L344.67,167.77L346.42,167.77L346.42,167.77L346.43,184.51L348.18,184.51L348.18,184.51L348.19,192.9L349.94,192.9L349.94,192.9L349.95,262.25L351.7,262.25L351.7,264.64L353.46,264.64L353.46,269.3L355.22,269.3L355.22,276.65L356.97,276.65L356.97,276.65L356.98,282.76L360.49,283.37L360.49,283.37L360.5,279.57L362.25,279.57L362.25,279.57L362.26,262.6L364.01,262.6L364.01,130.98L365.77,130.98L365.77,122.75L367.53,122.75L367.53,157.77L369.28,157.77L369.28,157.77L369.29,190.68L371.04,190.68L371.04,190.68L371.05,246.69L372.8,246.69L372.8,246.69L372.81,279.87L374.56,279.87L374.56,283.63L376.32,283.63L376.32,279.91L378.08,279.91L378.08,278.79L379.84,278.79L379.84,284.99L381.59,284.99L381.59,284.99L381.6,287.7L385.11,288.35L385.11,288.35L385.12,293.31L386.87,293.31L386.87,291.61L390.39,291.34L390.39,236.26L392.15,236.26L392.15,242.24L393.9,242.24L393.9,242.24L393.91,235.2L395.66,235.2L395.66,235.2L395.67,229.52L397.42,229.52L397.42,229.52L397.43,214.77L399.18,214.77L399.18,199.55L400.94,199.55L400.94,184.74L402.7,184.74L402.7,211.89L404.45,211.89L404.45,211.89L404.46,247.11L406.21,247.11L406.21,247.11L406.22,282.38L407.97,282.38L407.97,282.38L407.98,284.78L409.73,284.78L409.73,284.78L409.74,286.83L411.49,286.83L411.49,204.38L413.25,204.38L413.25,129.25L415.01,129.25L415.01,16L416.76,16L416.76,16L416.77,50.81L418.52,50.81L418.52,50.81L418.53,249.82L420.28,249.82L420.28,249.82L420.29,220.81L422.04,220.81L422.04,220.81L422.04,151.9L423.8,151.9L423.8,129.87L425.56,129.87L425.56,103.79L427.32,103.79L427.32,108.58L429.07,108.58L429.07,108.58L429.08,160.17L430.83,160.17L430.83,160.17L430.84,267.61L432.59,267.61L432.59,267.61L432.6,274.63L434.35,274.63L434.35,281.21L436.11,281.21L436.11,285.23L437.87,285.23L437.87,283.78L439.63,283.78L439.63,288.21L441.38,288.21L441.38,288.21L441.39,289.56L443.14,289.56L443.14,289.56L443.15,287.99L444.9,287.99L444.9,287.99L444.91,289.29L446.66,289.29L446.66,292.19L450.18,292.49L450.18,294.32L451.93,294.32L451.93,294.32L451.94,295.38L457.21,295.67L457.21,295.67L457.22,296.61L464.24,296.51L464.24,296.51L464.25,295.76L466,295.76L466,295.76L466.01,297.02L478.31,296.99L478.31,296.99L478.32,295.05L480.07,295.05L480.07,295.05L480.08,293.66L483.59,293.79L483.59,290.29L485.35,290.29L485.35,293.47L487.11,293.47L487.11,292.37L488.86,292.37L488.86,292.37L488.87,294.09L490.62,294.09L490.62,294.09L490.63,291.84L492.38,291.84L492.38,291.84L492.39,290.53L495.9,290.19L495.9,293.89L501.17,293.88L501.17,293.88L501.18,293.77L502.93,293.77L502.93,293.77L502.94,294.85L508.21,294.69L508.21,289.33L509.97,289.33L509.97,292.25L511.72,292.25L511.72,292.25L511.73,290.3L513.48,290.3L513.48,290.3L513.49,287.78L515.24,287.78L515.24,287.78L515.25,290.28L517,290.28L517,290.28" style="vector-effect: non-scaling-stroke; fill: none; stroke: rgb(0, 204, 150); stroke-opacity: 1; stroke-width: 2px; opacity: 1;"/></g><g class="points"/><g class="text"/></g></g></g><g class="overplot"/><path class="xlines-above crisp" d="M0,0" style="fill: none;"/><path class="ylines-above crisp" d="M0,0" style="fill: none;"/><g class="overlines-above"/><g class="xaxislayer-above"><g class="xtick"><text text-anchor="middle" x="0" y="433" transform="translate(80,0)" style="font-family: 'Open Sans', verdana, arial, sans-serif; font-size: 12px; fill: rgb(42, 63, 95); fill-opacity: 1; white-space: pre; opacity: 1;">0</text></g><g class="xtick"><text text-anchor="middle" x="0" y="433" style="font-family: 'Open Sans', verdana, arial, sans-serif; font-size: 12px; fill: rgb(42, 63, 95); fill-opacity: 1; white-space: pre; opacity: 1;" transform="translate(187.70999999999998,0)">1</text></g><g class="xtick"><text text-anchor="middle" x="0" y="433" style="font-family: 'Open Sans', verdana, arial, sans-serif; font-size: 12px; fill: rgb(42, 63, 95); fill-opacity: 1; white-space: pre; opacity: 1;" transform="translate(295.41999999999996,0)">2</text></g><g class="xtick"><text text-anchor="middle" x="0" y="433" style="font-family: 'Open Sans', verdana, arial, sans-serif; font-size: 12px; fill: rgb(42, 63, 95); fill-opacity: 1; white-space: pre; opacity: 1;" transform="translate(403.13,0)">3</text></g><g class="xtick"><text text-anchor="middle" x="0" y="433" style="font-family: 'Open Sans', verdana, arial, sans-serif; font-size: 12px; fill: rgb(42, 63, 95); fill-opacity: 1; white-space: pre; opacity: 1;" transform="translate(510.83,0)">4</text></g></g><g class="yaxislayer-above"><g class="ytick"><text text-anchor="end" x="79" y="4.199999999999999" transform="translate(0,400.34)" style="font-family: 'Open Sans', verdana, arial, sans-serif; font-size: 12px; fill: rgb(42, 63, 95); fill-opacity: 1; white-space: pre; opacity: 1;">0</text></g><g class="ytick"><text text-anchor="end" x="79" y="4.199999999999999" style="font-family: 'Open Sans', verdana, arial, sans-serif; font-size: 12px; fill: rgb(42, 63, 95); fill-opacity: 1; white-space: pre; opacity: 1;" transform="translate(0,347.26)">5</text></g><g class="ytick"><text text-anchor="end" x="79" y="4.199999999999999" style="font-family: 'Open Sans', verdana, arial, sans-serif; font-size: 12px; fill: rgb(42, 63, 95); fill-opacity: 1; white-space: pre; opacity: 1;" transform="translate(0,294.18)">10</text></g><g class="ytick"><text text-anchor="end" x="79" y="4.199999999999999" style="font-family: 'Open Sans', verdana, arial, sans-serif; font-size: 12px; fill: rgb(42, 63, 95); fill-opacity: 1; white-space: pre; opacity: 1;" transform="translate(0,241.1)">15</text></g><g class="ytick"><text text-anchor="end" x="79" y="4.199999999999999" style="font-family: 'Open Sans', verdana, arial, sans-serif; font-size: 12px; fill: rgb(42, 63, 95); fill-opacity: 1; white-space: pre; opacity: 1;" transform="translate(0,188.01999999999998)">20</text></g><g class="ytick"><text text-anchor="end" x="79" y="4.199999999999999" style="font-family: 'Open Sans', verdana, arial, sans-serif; font-size: 12px; fill: rgb(42, 63, 95); fill-opacity: 1; white-space: pre; opacity: 1;" transform="translate(0,134.94)">25</text></g></g><g class="overaxes-above"/></g></g><g class="polarlayer"/><g class="smithlayer"/><g class="ternarylayer"/><g class="geolayer"/><g class="funnelarealayer"/><g class="pielayer"/><g class="iciclelayer"/><g class="treemaplayer"/><g class="sunburstlayer"/><g class="glimages"/><defs id="topdefs-3846e7"><g class="clips"/><clipPath id="legend3846e7"><rect width="81" height="67" x="0" y="0"/></clipPath></defs><g class="layer-above"><g class="imagelayer"/><g class="shapelayer"/></g><g class="infolayer"><g class="legend" pointer-events="all" transform="translate(607.34,100)"><rect class="bg" shape-rendering="crispEdges" style="stroke: rgb(68, 68, 68); stroke-opacity: 1; fill: rgb(255, 255, 255); fill-opacity: 1; stroke-width: 0px;" width="81" height="67" x="0" y="0"/><g class="scrollbox" transform="" clip-path="url(#legend3846e7)"><g class="groups"><g class="traces" transform="translate(0,14.5)" style="opacity: 1;"><text class="legendtext" text-anchor="start" x="40" y="4.680000000000001" style="font-family: 'Open Sans', verdana, arial, sans-serif; font-size: 12px; fill: rgb(42, 63, 95); fill-opacity: 1; white-space: pre;">signal</text><g class="layers" style="opacity: 1;"><g class="legendfill"/><g class="legendlines"><path class="js-line" d="M5,0h30" style="fill: none; stroke: rgb(99, 110, 250); stroke-opacity: 1; stroke-width: 2px;"/></g><g class="legendsymbols"><g class="legendpoints"/></g></g><rect class="legendtoggle" x="0" y="-9.5" width="75.125" height="19" style="fill: rgb(0, 0, 0); fill-opacity: 0;"/></g><g class="traces" transform="translate(0,33.5)" style="opacity: 1;"><text class="legendtext" text-anchor="start" x="40" y="4.680000000000001" style="font-family: 'Open Sans', verdana, arial, sans-serif; font-size: 12px; fill: rgb(42, 63, 95); fill-opacity: 1; white-space: pre;">STE</text><g class="layers" style="opacity: 1;"><g class="legendfill"/><g class="legendlines"><path class="js-line" d="M5,0h30" style="fill: none; stroke: rgb(239, 85, 59); stroke-opacity: 1; stroke-width: 2px;"/></g><g class="legendsymbols"><g class="legendpoints"/></g></g><rect class="legendtoggle" x="0" y="-9.5" width="75.125" height="19" style="fill: rgb(0, 0, 0); fill-opacity: 0;"/></g><g class="traces" transform="translate(0,52.5)" style="opacity: 1;"><text class="legendtext" text-anchor="start" x="40" y="4.680000000000001" style="font-family: 'Open Sans', verdana, arial, sans-serif; font-size: 12px; fill: rgb(42, 63, 95); fill-opacity: 1; white-space: pre;">MA</text><g class="layers" style="opacity: 1;"><g class="legendfill"/><g class="legendlines"><path class="js-line" d="M5,0h30" style="fill: none; stroke: rgb(0, 204, 150); stroke-opacity: 1; stroke-width: 2px;"/></g><g class="legendsymbols"><g class="legendpoints"/></g></g><rect class="legendtoggle" x="0" y="-9.5" width="75.125" height="19" style="fill: rgb(0, 0, 0); fill-opacity: 0;"/></g></g></g><rect class="scrollbar" rx="20" ry="3" width="0" height="0" style="fill: rgb(128, 139, 164); fill-opacity: 1;" x="0" y="0"/></g><g class="g-gtitle"><text class="gtitle" x="35" y="50" text-anchor="start" dy="0em" style="font-family: 'Open Sans', verdana, arial, sans-serif; font-size: 17px; fill: rgb(42, 63, 95); opacity: 1; font-weight: normal; white-space: pre;">Phone_F2</text></g><g class="g-xtitle"/><g class="g-ytitle"/></g></svg>